<svg width="32" height="32" viewBox="0 0 32 32" fill="none" xmlns="http://www.w3.org/2000/svg">
<rect x="1" y="1" width="30" height="30" rx="3" stroke="#062630" stroke-width="2"/>
<path d="M11.536 19.076L16.16 16.02C16.6933 15.668 17.0827 15.2947 17.328 14.9C17.5733 14.4947 17.696 14.052 17.696 13.572C17.696 12.964 17.5253 12.4893 17.184 12.148C16.8427 11.796 16.3627 11.62 15.744 11.62C15.1467 11.62 14.656 11.8013 14.272 12.164C13.8987 12.5267 13.6373 13.06 13.488 13.764H11.2C11.2533 12.8467 11.472 12.0627 11.856 11.412C12.2507 10.7613 12.7787 10.2653 13.44 9.924C14.112 9.58267 14.88 9.412 15.744 9.412C16.6293 9.412 17.3973 9.58267 18.048 9.924C18.7093 10.2653 19.216 10.7453 19.568 11.364C19.92 11.9827 20.096 12.7187 20.096 13.572C20.096 14.4467 19.8667 15.236 19.408 15.94C18.96 16.644 18.256 17.284 17.296 17.86L13.984 19.988V20.228H19.824V22.5H11.536V19.076Z" fill="#062630"/>
</svg>
