<svg width="32" height="32" viewBox="0 0 32 32" fill="none" xmlns="http://www.w3.org/2000/svg">
<rect x="1" y="1" width="30" height="30" rx="3" stroke="#062630" stroke-width="2"/>
<path d="M20.08 19.092C20.08 19.8173 19.8933 20.4627 19.52 21.028C19.1573 21.5827 18.6453 22.0147 17.984 22.324C17.3333 22.6333 16.5813 22.788 15.728 22.788C14.7893 22.788 13.9787 22.6227 13.296 22.292C12.624 21.9613 12.1013 21.4867 11.728 20.868C11.3547 20.2387 11.1573 19.4813 11.136 18.596H13.376C13.4933 19.2573 13.744 19.7587 14.128 20.1C14.5227 20.4307 15.0453 20.596 15.696 20.596C16.0907 20.596 16.4373 20.5267 16.736 20.388C17.0347 20.2387 17.264 20.036 17.424 19.78C17.584 19.5133 17.664 19.204 17.664 18.852C17.664 18.2973 17.4987 17.86 17.168 17.54C16.848 17.22 16.3947 17.06 15.808 17.06H14.368V14.948H15.84C16.4373 14.948 16.9067 14.7987 17.248 14.5C17.5893 14.2013 17.76 13.796 17.76 13.284C17.76 12.7827 17.5787 12.3773 17.216 12.068C16.8533 11.7587 16.3733 11.604 15.776 11.604C15.104 11.604 14.56 11.7853 14.144 12.148C13.7387 12.5 13.4613 13.0387 13.312 13.764H11.056C11.0987 12.836 11.312 12.052 11.696 11.412C12.0907 10.7613 12.6347 10.2653 13.328 9.924C14.0213 9.58267 14.848 9.412 15.808 9.412C16.6613 9.412 17.4133 9.56667 18.064 9.876C18.7253 10.1747 19.2373 10.596 19.6 11.14C19.9627 11.684 20.144 12.324 20.144 13.06C20.144 13.7213 19.968 14.292 19.616 14.772C19.2747 15.2413 18.8053 15.5667 18.208 15.748V16.068C18.784 16.26 19.2373 16.6227 19.568 17.156C19.9093 17.6893 20.08 18.3347 20.08 19.092Z" fill="#062630"/>
</svg>
