<svg width="292" height="44" viewBox="0 0 292 44" fill="none" xmlns="http://www.w3.org/2000/svg">
<path d="M10.404 9.14V5.4H14.11V9.14H10.404ZM10.404 39.4V35.66H14.11V39.4H10.404ZM7.378 28.724C7.69533 29.7893 8.25067 30.594 9.044 31.138C9.86 31.682 10.9027 31.954 12.172 31.954C13.5093 31.954 14.5633 31.6367 15.334 31.002C16.1047 30.3447 16.49 29.4493 16.49 28.316C16.49 27.4773 16.218 26.786 15.674 26.242C15.13 25.698 14.3593 25.358 13.362 25.222L10.098 24.712C7.718 24.3267 5.89333 23.454 4.624 22.094C3.37733 20.7113 2.754 18.898 2.754 16.654C2.754 14.9087 3.13933 13.4127 3.91 12.166C4.70333 10.8967 5.814 9.922 7.242 9.242C8.67 8.53933 10.3473 8.188 12.274 8.188C14.2233 8.188 15.9007 8.528 17.306 9.208C18.734 9.888 19.856 10.8627 20.672 12.132C21.488 13.4013 21.9413 14.9427 22.032 16.756H17.238C16.9207 15.4867 16.3427 14.5233 15.504 13.866C14.6653 13.186 13.5887 12.846 12.274 12.846C10.8687 12.846 9.758 13.1747 8.942 13.832C8.126 14.4893 7.718 15.396 7.718 16.552C7.718 17.368 7.99 18.048 8.534 18.592C9.10067 19.136 9.88267 19.4873 10.88 19.646L14.11 20.156C16.5127 20.5187 18.3373 21.3913 19.584 22.774C20.8533 24.1567 21.488 25.97 21.488 28.214C21.488 29.914 21.1027 31.3987 20.332 32.668C19.584 33.9147 18.5073 34.8893 17.102 35.592C15.6967 36.272 14.042 36.612 12.138 36.612C10.234 36.612 8.568 36.306 7.14 35.694C5.73467 35.0593 4.624 34.1527 3.808 32.974C3.01467 31.7953 2.56133 30.3787 2.448 28.724H7.378ZM38.3106 8.8V31.172H44.7366V36H26.0366V31.172H33.2106V11.656L34.2986 12.234L26.0366 17.64V12.2L31.4426 8.8H38.3106ZM57.5473 8.188C59.4513 8.188 61.1286 8.596 62.5793 9.412C64.0526 10.228 65.2086 11.3613 66.0473 12.812C66.8859 14.2627 67.3053 15.94 67.3053 17.844C67.3053 19.2493 67.0446 20.666 66.5233 22.094C66.0019 23.4993 65.1746 25.018 64.0413 26.65L57.6153 36H51.9373L58.0573 27.398L57.4113 26.82C57.2753 26.8653 57.1053 26.8993 56.9013 26.922C56.7199 26.9447 56.5159 26.956 56.2893 26.956C54.6346 26.956 53.1613 26.5593 51.8693 25.766C50.5999 24.9727 49.5913 23.896 48.8433 22.536C48.0953 21.1533 47.7213 19.5893 47.7213 17.844C47.7213 15.94 48.1406 14.2627 48.9793 12.812C49.8179 11.3613 50.9739 10.228 52.4473 9.412C53.9433 8.596 55.6433 8.188 57.5473 8.188ZM62.2053 17.844C62.2053 16.8467 62.0126 15.974 61.6273 15.226C61.2419 14.478 60.6979 13.9 59.9953 13.492C59.2926 13.084 58.4766 12.88 57.5473 12.88C56.5953 12.88 55.7679 13.084 55.0653 13.492C54.3626 13.9 53.8073 14.478 53.3993 15.226C53.0139 15.9513 52.8213 16.824 52.8213 17.844C52.8213 18.8187 53.0139 19.68 53.3993 20.428C53.8073 21.1533 54.3513 21.7313 55.0313 22.162C55.7339 22.57 56.5499 22.774 57.4793 22.774C58.4313 22.774 59.2586 22.57 59.9613 22.162C60.6639 21.7313 61.2079 21.1533 61.5933 20.428C62.0013 19.68 62.2053 18.8187 62.2053 17.844Z" fill="#062630"/>
<path d="M84.6761 13.7727L79.9886 31.1875H78.4545L83.142 13.7727H84.6761ZM86.163 29V18.0909H87.7823V19.7955H87.9244C88.1516 19.2131 88.5186 18.7609 89.0252 18.4389C89.5318 18.1122 90.1403 17.9489 90.8505 17.9489C91.5702 17.9489 92.1692 18.1122 92.6474 18.4389C93.1303 18.7609 93.5067 19.2131 93.7766 19.7955H93.8903C94.1696 19.232 94.5887 18.7846 95.1474 18.4531C95.7061 18.117 96.3761 17.9489 97.1573 17.9489C98.1327 17.9489 98.9305 18.2543 99.5508 18.8651C100.171 19.4711 100.481 20.4157 100.481 21.6989V29H98.805V21.6989C98.805 20.8939 98.5849 20.3187 98.1445 19.973C97.7042 19.6274 97.1857 19.4545 96.5891 19.4545C95.8221 19.4545 95.2279 19.6866 94.8065 20.1506C94.3851 20.6098 94.1744 21.1922 94.1744 21.8977V29H92.4698V21.5284C92.4698 20.9081 92.2686 20.4086 91.8661 20.0298C91.4637 19.6463 90.9452 19.4545 90.3107 19.4545C89.8751 19.4545 89.4679 19.5705 89.0891 19.8026C88.7151 20.0346 88.4121 20.3565 88.18 20.7685C87.9528 21.1757 87.8391 21.6468 87.8391 22.1818V29H86.163ZM107.478 29.2273C106.493 29.2273 105.629 28.9929 104.885 28.5241C104.147 28.0554 103.569 27.3996 103.152 26.5568C102.74 25.714 102.534 24.7292 102.534 23.6023C102.534 22.4659 102.74 21.474 103.152 20.6264C103.569 19.7789 104.147 19.1207 104.885 18.652C105.629 18.1832 106.493 17.9489 107.478 17.9489C108.462 17.9489 109.324 18.1832 110.063 18.652C110.806 19.1207 111.384 19.7789 111.796 20.6264C112.212 21.474 112.421 22.4659 112.421 23.6023C112.421 24.7292 112.212 25.714 111.796 26.5568C111.384 27.3996 110.806 28.0554 110.063 28.5241C109.324 28.9929 108.462 29.2273 107.478 29.2273ZM107.478 27.7216C108.226 27.7216 108.841 27.5298 109.324 27.1463C109.807 26.7628 110.165 26.2585 110.397 25.6335C110.629 25.0085 110.745 24.3314 110.745 23.6023C110.745 22.8731 110.629 22.1937 110.397 21.5639C110.165 20.9342 109.807 20.4252 109.324 20.0369C108.841 19.6487 108.226 19.4545 107.478 19.4545C106.73 19.4545 106.114 19.6487 105.631 20.0369C105.148 20.4252 104.791 20.9342 104.559 21.5639C104.327 22.1937 104.211 22.8731 104.211 23.6023C104.211 24.3314 104.327 25.0085 104.559 25.6335C104.791 26.2585 105.148 26.7628 105.631 27.1463C106.114 27.5298 106.73 27.7216 107.478 27.7216ZM116.156 22.4375V29H114.479V18.0909H116.099V19.7955H116.241C116.496 19.2415 116.885 18.7964 117.406 18.4602C117.926 18.1193 118.599 17.9489 119.423 17.9489C120.161 17.9489 120.808 18.1004 121.362 18.4034C121.915 18.7017 122.346 19.1562 122.654 19.767C122.962 20.3731 123.116 21.1402 123.116 22.0682V29H121.44V22.1818C121.44 21.3248 121.217 20.6572 120.772 20.179C120.327 19.696 119.716 19.4545 118.94 19.4545C118.405 19.4545 117.926 19.5705 117.505 19.8026C117.088 20.0346 116.759 20.3731 116.518 20.8182C116.276 21.2633 116.156 21.803 116.156 22.4375ZM130.423 18.0909V19.5114H124.77V18.0909H130.423ZM126.417 15.4773H128.093V25.875C128.093 26.3485 128.162 26.7036 128.299 26.9403C128.441 27.1723 128.621 27.3286 128.839 27.4091C129.062 27.4848 129.296 27.5227 129.542 27.5227C129.727 27.5227 129.878 27.5133 129.997 27.4943C130.115 27.4706 130.21 27.4517 130.281 27.4375L130.622 28.9432C130.508 28.9858 130.35 29.0284 130.146 29.071C129.942 29.1184 129.684 29.142 129.372 29.142C128.898 29.142 128.434 29.0402 127.98 28.8366C127.53 28.633 127.156 28.3229 126.858 27.9062C126.564 27.4896 126.417 26.964 126.417 26.3295V15.4773ZM134.355 22.4375V29H132.679V14.4545H134.355V19.7955H134.497C134.752 19.232 135.136 18.7846 135.647 18.4531C136.163 18.117 136.85 17.9489 137.707 17.9489C138.45 17.9489 139.101 18.098 139.66 18.3963C140.219 18.6899 140.652 19.142 140.96 19.7528C141.272 20.3589 141.429 21.1307 141.429 22.0682V29H139.752V22.1818C139.752 21.3153 139.528 20.6454 139.078 20.1719C138.633 19.6937 138.015 19.4545 137.224 19.4545C136.675 19.4545 136.182 19.5705 135.747 19.8026C135.316 20.0346 134.975 20.3731 134.724 20.8182C134.478 21.2633 134.355 21.803 134.355 22.4375Z" fill="#385159"/>
</svg>
