<svg width="18" height="18" viewBox="0 0 18 18" fill="none" xmlns="http://www.w3.org/2000/svg">
<path d="M16.25 0C16.9141 0 17.5 0.585938 17.5 1.28906V16.25C17.5 16.9531 16.9141 17.5 16.25 17.5H1.21094C0.546875 17.5 0 16.9531 0 16.25V1.28906C0 0.585938 0.546875 0 1.21094 0H16.25ZM5.27344 15V6.67969H2.69531V15H5.27344ZM3.98438 5.50781C4.80469 5.50781 5.46875 4.84375 5.46875 4.02344C5.46875 3.20312 4.80469 2.5 3.98438 2.5C3.125 2.5 2.46094 3.20312 2.46094 4.02344C2.46094 4.84375 3.125 5.50781 3.98438 5.50781ZM15 15V10.4297C15 8.20312 14.4922 6.44531 11.875 6.44531C10.625 6.44531 9.76562 7.14844 9.41406 7.8125H9.375V6.67969H6.91406V15H9.49219V10.8984C9.49219 9.80469 9.6875 8.75 11.0547 8.75C12.3828 8.75 12.3828 10 12.3828 10.9375V15H15Z" fill="#FAF5F3"/>
</svg>
