<svg width="164" height="28" viewBox="0 0 164 28" fill="none" xmlns="http://www.w3.org/2000/svg">
<path opacity="0.9" d="M13.0748 6.11603C13.4577 5.35041 14.5423 5.38231 14.8932 6.11603L16.9987 10.3589L21.6562 11.0288C22.4857 11.1564 22.8047 12.1772 22.1985 12.7833L18.8489 16.0692L19.6465 20.6948C19.7741 21.5242 18.8808 22.1623 18.1471 21.7794L14 19.5783L9.82094 21.7794C9.08721 22.1623 8.19398 21.5242 8.32159 20.6948L9.11911 16.0692L5.76951 12.7833C5.16339 12.1772 5.4824 11.1564 6.31182 11.0288L11.0013 10.3589L13.0748 6.11603Z" fill="#FF9A60"/>
<path opacity="0.9" d="M47.0748 6.11603C47.4577 5.35041 48.5423 5.38231 48.8932 6.11603L50.9987 10.3589L55.6562 11.0288C56.4857 11.1564 56.8047 12.1772 56.1985 12.7833L52.8489 16.0692L53.6465 20.6948C53.7741 21.5242 52.8808 22.1623 52.1471 21.7794L48 19.5783L43.8209 21.7794C43.0872 22.1623 42.194 21.5242 42.3216 20.6948L43.1191 16.0692L39.7695 12.7833C39.1634 12.1772 39.4824 11.1564 40.3118 11.0288L45.0013 10.3589L47.0748 6.11603Z" fill="#FF9A60"/>
<path opacity="0.9" d="M81.0748 6.11603C81.4577 5.35041 82.5423 5.38231 82.8932 6.11603L84.9987 10.3589L89.6562 11.0288C90.4857 11.1564 90.8047 12.1772 90.1985 12.7833L86.8489 16.0692L87.6465 20.6948C87.7741 21.5242 86.8808 22.1623 86.1471 21.7794L82 19.5783L77.8209 21.7794C77.0872 22.1623 76.194 21.5242 76.3216 20.6948L77.1191 16.0692L73.7695 12.7833C73.1634 12.1772 73.4824 11.1564 74.3118 11.0288L79.0013 10.3589L81.0748 6.11603Z" fill="#FF9A60"/>
<path opacity="0.9" d="M115.075 6.11603C115.458 5.35041 116.542 5.38231 116.893 6.11603L118.999 10.3589L123.656 11.0288C124.486 11.1564 124.805 12.1772 124.199 12.7833L120.849 16.0692L121.646 20.6948C121.774 21.5242 120.881 22.1623 120.147 21.7794L116 19.5783L111.821 21.7794C111.087 22.1623 110.194 21.5242 110.322 20.6948L111.119 16.0692L107.77 12.7833C107.163 12.1772 107.482 11.1564 108.312 11.0288L113.001 10.3589L115.075 6.11603Z" fill="#FF9A60"/>
<path opacity="0.9" d="M149.075 6.11603C149.458 5.35041 150.542 5.38231 150.893 6.11603L152.999 10.3589L157.656 11.0288C158.486 11.1564 158.805 12.1772 158.199 12.7833L154.849 16.0692L155.646 20.6948C155.774 21.5242 154.881 22.1623 154.147 21.7794L150 19.5783L145.821 21.7794C145.087 22.1623 144.194 21.5242 144.322 20.6948L145.119 16.0692L141.77 12.7833C141.163 12.1772 141.482 11.1564 142.312 11.0288L147.001 10.3589L149.075 6.11603Z" fill="#FF9A60"/>
</svg>
