<svg width="22" height="22" viewBox="0 0 22 22" fill="none" xmlns="http://www.w3.org/2000/svg">
<g clip-path="url(#clip0_153_2015)">
<path d="M4.80391 2.67276C7.31328 4.55049 10.0117 8.36612 11 10.4157C11.9883 8.37041 14.6867 4.55479 17.1961 2.67276C19.0051 1.31495 21.9355 0.266508 21.9355 3.60948C21.9355 4.27549 21.5531 9.2169 21.3297 10.0204C20.5477 12.8048 17.7031 13.5181 15.1723 13.0841C19.5938 13.836 20.7195 16.3282 18.2875 18.8204C13.6727 23.5556 11.6574 17.6345 11.1418 16.1177C11.0687 15.9071 11.0301 15.7825 11 15.7825C10.9699 15.7825 10.9312 15.9114 10.8582 16.1177C10.3426 17.6345 8.32305 23.5556 3.7125 18.8204C1.28477 16.3282 2.40625 13.836 6.82773 13.0841C4.29687 13.5181 1.45234 12.8048 0.674609 10.0161C0.446875 9.2126 0.0644531 4.2712 0.0644531 3.60518C0.0644531 0.262211 2.99492 1.31065 4.80391 2.66846V2.67276Z" fill="#FAF5F3"/>
</g>
<defs>
<clipPath id="clip0_153_2015">
<rect width="22" height="22" fill="white"/>
</clipPath>
</defs>
</svg>
