<svg width="109" height="44" viewBox="0 0 109 44" fill="none" xmlns="http://www.w3.org/2000/svg">
<path d="M9.92008 18.7137C32.0959 2.67281 63.2346 -0.216433 84.0603 2.14631C93.4664 3.21335 102.16 5.58992 105.402 10.707C108.191 15.1052 106.262 21.9116 98.9325 27.8601C89.6963 35.3578 74.6879 38.6103 62.842 40.5092C51.4069 42.3423 40.4357 42.8652 30.7543 42.1043C21.2321 41.356 12.0395 39.4981 6.59393 35.6595C0.808035 31.5808 0.147154 23.9448 10.7545 16.7319C21.2236 9.6139 36.4686 6.63336 48.4106 4.93325C61.9375 3.00801 74.7112 2.46479 86.4854 3.11229C87.7959 3.18468 89.0349 1.7749 87.7263 1.70433C74.8088 0.999239 60.7085 1.72154 45.7925 4.04163C34.2716 5.83296 20.1392 9.08101 9.98909 15.6694C0.760578 21.6593 -1.71272 28.6362 1.09101 33.3657C4.6173 39.3181 15.4445 42.0111 26.2222 43.2037C36.9859 44.3957 49.4346 43.9252 62.5143 41.8353C74.6022 39.9032 89.6112 36.5371 99.4998 29.1526C107.183 23.4147 110.044 16.7856 108.679 11.9276C106.957 5.80028 98.3892 2.61758 88.7205 1.17334C67.0214 -2.06842 32.4631 0.739859 8.50453 18.0918C7.34461 18.9317 8.74835 19.5616 9.92008 18.7137Z" fill="#FEA36F"/>
</svg>
